<?xml version="1.0" encoding="utf-8"?>
<!-- Generator: Adobe Illustrator 22.1.0, SVG Export Plug-In . SVG Version: 6.00 Build 0)  -->
<svg version="1.1" id="Vrstva_1" xmlns="http://www.w3.org/2000/svg" xmlns:xlink="http://www.w3.org/1999/xlink" x="0px" y="0px"
	 viewBox="0 0 1850 326" style="enable-background:new 0 0 1850 326;" xml:space="preserve">
<style type="text/css">
	.st0{fill:#FFFFFF;}
	.st1{fill:#009CDF;}
	.st2{fill:none;stroke:#FFFFFF;stroke-width:2;stroke-miterlimit:10;}
	.st3{fill:#00656C;}
</style>
<g>
	<g>
		<path class="st0" d="M356.7,128.1v116h-36.5v-116h-36.5V95.6h109.5v32.5H356.7z"/>
		<path class="st0" d="M456.9,245.3c-22.7,0-41.3-4.2-56.3-19.6l23.4-23.4c7.7,7.7,21.3,10.5,33.2,10.5c14.4,0,21.3-4.8,21.3-13.4
			c0-3.5-0.9-6.5-2.9-8.8c-1.9-1.9-5-3.3-9.8-4l-18-2.5c-13.1-1.9-23.2-6.3-29.8-13.1c-6.9-7.1-10.2-17.1-10.2-29.9
			c0-27.1,20.4-46.9,54.2-46.9c21.3,0,37.4,5,50.1,17.7L489,135c-9.4-9.4-21.7-8.7-28.2-8.7c-12.7,0-17.9,7.3-17.9,13.8
			c0,1.9,0.6,4.6,2.9,6.9c1.9,1.9,5,3.8,10.2,4.4l17.9,2.5c13.3,1.9,22.9,6,29.2,12.3c7.9,7.7,11.1,18.8,11.1,32.5
			C514.2,228.9,488.2,245.3,456.9,245.3z"/>
		<path class="st0" d="M538.2,244.1V95.6h101v32.5h-64.5v24.8h55.1v32.6h-55.1v26.1h64.5v32.5H538.2z"/>
	</g>
	<path class="st1" d="M141,95.5v23.7c24.3,4.1,42.8,25.2,42.8,50.6c0,25.4-18.5,46.6-42.8,50.6v23.7c37.3-4.2,66.3-35.9,66.3-74.3
		S178.3,99.8,141,95.5"/>
	<path class="st1" d="M140.9,135.7V154c5.7,3,9.5,9,9.5,15.8c0,6.9-3.9,12.8-9.5,15.9V204c15.3-3.8,26.8-17.6,26.8-34.1
		C167.7,153.3,156.3,139.5,140.9,135.7"/>
	<path class="st1" d="M226.3,169.8c0,30.3-14.4,57.2-36.8,74.3h43.3c15.4-20.7,24.6-46.4,24.6-74.3c0-27.8-9.1-53.5-24.6-74.2h-43.3
		C211.9,112.6,226.3,139.5,226.3,169.8"/>
</g>
<line class="st2" x1="738.3" y1="93.7" x2="738.3" y2="245.3"/>
<g>
	<path class="st3" d="M853.2,185.9h-18.9v17.5h21v5.3h-27.3v-48.5h26.2v5.3h-19.9v15.3h18.9V185.9z"/>
	<path class="st3" d="M877.9,160.1h6.3v43.3h20.7v5.3h-27V160.1z"/>
	<path class="st3" d="M951.4,185.9h-18.9v17.5h21v5.3h-27.3v-48.5h26.2v5.3h-19.9v15.3h18.9V185.9z"/>
	<path class="st3" d="M1013,206.4c-2.8,1-8.4,2.7-14.9,2.7c-7.3,0-13.4-1.9-18.1-6.4c-4.2-4-6.8-10.5-6.8-18.1
		c0.1-14.5,10-25.1,26.3-25.1c5.6,0,10,1.2,12.1,2.2l-1.5,5.1c-2.6-1.2-5.8-2.1-10.7-2.1c-11.8,0-19.5,7.3-19.5,19.5
		c0,12.3,7.4,19.6,18.7,19.6c4.1,0,6.9-0.6,8.4-1.3v-14.5H997v-5h16V206.4z"/>
	<path class="st3" d="M1044.8,193.3l-5,15.3h-6.5l16.5-48.5h7.6l16.6,48.5h-6.7l-5.2-15.3H1044.8z M1060.8,188.4l-4.8-14
		c-1.1-3.2-1.8-6-2.5-8.9h-0.1c-0.7,2.9-1.5,5.8-2.4,8.8l-4.8,14H1060.8z"/>
	<path class="st3" d="M1095.5,208.6v-48.5h6.8l15.6,24.6c3.6,5.7,6.4,10.8,8.7,15.8l0.1-0.1c-0.6-6.5-0.7-12.4-0.7-19.9v-20.3h5.9
		v48.5h-6.3l-15.4-24.6c-3.4-5.4-6.6-10.9-9.1-16.2l-0.2,0.1c0.4,6.1,0.5,12,0.5,20v20.7H1095.5z"/>
	<path class="st3" d="M1166.5,165.4h-14.8v-5.3h35.9v5.3h-14.8v43.2h-6.3V165.4z"/>
	<path class="st3" d="M1207.4,208.6v-48.5h6.8l15.6,24.6c3.6,5.7,6.4,10.8,8.7,15.8l0.1-0.1c-0.6-6.5-0.7-12.4-0.7-19.9v-20.3h5.9
		v48.5h-6.3l-15.4-24.6c-3.4-5.4-6.6-10.9-9.1-16.2l-0.2,0.1c0.4,6.1,0.5,12,0.5,20v20.7H1207.4z"/>
	<path class="st3" d="M1282.9,149.1l-9.2,8.4h-5.1l6.6-8.4H1282.9z M1275.5,160.1v48.5h-6.3v-48.5H1275.5z"/>
	<path class="st3" d="M1336.7,165.4H1322v-5.3h35.9v5.3h-14.8v43.2h-6.3V165.4z"/>
	<path class="st3" d="M1402.8,185.9H1384v17.5h21v5.3h-27.3v-48.5h26.2v5.3H1384v15.3h18.9V185.9z"/>
	<path class="st3" d="M1461.4,207c-2.3,1.2-6.9,2.3-12.8,2.3c-13.7,0-24-8.6-24-24.6c0-15.2,10.3-25.5,25.3-25.5
		c6,0,9.9,1.3,11.5,2.2l-1.5,5.1c-2.4-1.2-5.8-2-9.8-2c-11.4,0-18.9,7.3-18.9,20c0,11.9,6.8,19.5,18.6,19.5c3.8,0,7.7-0.8,10.2-2
		L1461.4,207z"/>
	<path class="st3" d="M1489.9,160.1v20.3h23.5v-20.3h6.3v48.5h-6.3v-22.8h-23.5v22.8h-6.3v-48.5H1489.9z"/>
	<path class="st3" d="M1545,208.6v-48.5h6.8l15.6,24.6c3.6,5.7,6.4,10.8,8.7,15.8l0.1-0.1c-0.6-6.5-0.7-12.4-0.7-19.9v-20.3h5.9
		v48.5h-6.3l-15.4-24.6c-3.4-5.4-6.6-10.9-9.1-16.2l-0.2,0.1c0.4,6.1,0.5,12,0.5,20v20.7H1545z"/>
	<path class="st3" d="M1613.1,160.1v48.5h-6.3v-48.5H1613.1z"/>
	<path class="st3" d="M1638.4,160.1h6.3v23.4h0.2c1.3-1.9,2.6-3.6,3.8-5.2l14.8-18.2h7.8l-17.6,20.6l18.9,27.9h-7.4l-16-23.8
		l-4.6,5.3v18.5h-6.3V160.1z"/>
	<path class="st3" d="M1700.4,193.3l-5,15.3h-6.5l16.5-48.5h7.6l16.6,48.5h-6.7l-5.2-15.3H1700.4z M1716.3,188.4l-4.8-14
		c-1.1-3.2-1.8-6-2.5-8.9h-0.1c-0.7,2.9-1.5,5.8-2.4,8.8l-4.8,14H1716.3z"/>
</g>
</svg>
