<?xml version="1.0" encoding="utf-8"?>
<!-- Generator: Adobe Illustrator 22.0.1, SVG Export Plug-In . SVG Version: 6.00 Build 0)  -->
<svg version="1.1" id="Calque_1" xmlns="http://www.w3.org/2000/svg" xmlns:xlink="http://www.w3.org/1999/xlink" x="0px" y="0px"
	 viewBox="0 0 213.9 44.2" style="enable-background:new 0 0 213.9 44.2;" xml:space="preserve">
<style type="text/css">
	.st0{fill:#3CAECB;}
	.st1{fill:#3582A9;}
	.st2{fill:#285771;}
	.st3{fill:#93C01F;}
</style>
<g>
	<path class="st0" d="M182.7,18.9c1.9,0,3.5,1.6,3.5,3.5v2.8c0,1.9-1.6,3.5-3.5,3.5h-0.1c-1.9,0-3.5-1.6-3.5-3.5v-2.8
		C179.1,20.5,180.7,18.9,182.7,18.9L182.7,18.9 M182.7,17L182.7,17c-3.1,0-5.5,2.4-5.5,5.4v2.8c0,3,2.4,5.4,5.4,5.4h0.1
		c3,0,5.4-2.4,5.4-5.4v-2.8C188.1,19.5,185.7,17,182.7,17"/>
	<path class="st0" d="M169.9,30.5c-0.5,0-0.9-0.4-0.9-0.9v-6.5c0-0.5-0.1-4,2.8-5.4c0.3-0.2,2.1-1.1,4.5-0.3
		c0.5,0.2,0.7,0.7,0.6,1.2c-0.2,0.5-0.7,0.7-1.2,0.6c-1.7-0.6-2.9,0.1-3,0.1l-0.1,0c-2,1-1.8,3.6-1.8,3.7l0,0.1v6.5
		C170.9,30.1,170.5,30.5,169.9,30.5"/>
	<path class="st0" d="M207.6,17L207.6,17c-3.1,0-5.5,2.4-5.5,5.4v2.8c0,0,0,0.1,0,0.1v9.5c0,0.5,0.4,0.9,0.9,0.9s0.9-0.4,0.9-0.9
		v-5.5c0.9,0.8,2.2,1.3,3.5,1.3h0.1c3,0,5.4-2.4,5.4-5.4v-2.8C213,19.5,210.6,17,207.6,17 M211.1,25.2c0,1.9-1.6,3.5-3.5,3.5h-0.1
		c-1.9,0-3.5-1.5-3.5-3.4l0-2.8c0-1.9,1.6-3.5,3.5-3.5h0.1c1.9,0,3.5,1.6,3.5,3.5V25.2z"/>
	<path class="st1" d="M94,17c-2.8,0-5.1,2.2-5.3,5c0,0,0,0,0,0.1v0.1c0,0.1,0,0.2,0,0.3v2.8c0,0.1,0,0.2,0,0.3v8.9
		c0,0.8,0.7,1.5,1.5,1.5c0.8,0,1.5-0.7,1.5-1.5V30c0.7,0.3,1.5,0.5,2.3,0.5c2.9,0,5.3-2.4,5.3-5.3v-2.8C99.4,19.4,97,17,94,17
		 M96.3,25.2c0,1.3-1,2.3-2.3,2.3c-1.2,0-2.2-0.9-2.3-2.1v-3.1c0.1-1.2,1.1-2.1,2.3-2.1c1.3,0,2.3,1,2.3,2.3V25.2z"/>
	<path class="st1" d="M81.6,13.2c0-0.8-0.7-1.5-1.5-1.5c-0.8,0-1.5,0.7-1.5,1.5v4.4c-0.7-0.3-1.5-0.5-2.3-0.5
		c-2.9,0-5.3,2.4-5.3,5.3v2.8c0,2.9,2.4,5.3,5.3,5.3c2.8,0,5.1-2.2,5.3-5c0,0,0,0,0-0.1v0c0-0.1,0-0.2,0-0.3v-2.8c0-0.1,0-0.2,0-0.3
		V13.2z M78.6,25.4c-0.1,1.2-1.1,2.1-2.3,2.1c-1.3,0-2.3-1-2.3-2.3v-2.8c0-1.3,1-2.3,2.3-2.3c1.2,0,2.2,0.9,2.3,2.1V25.4z"/>
	<path class="st1" d="M107.9,17l-1.2,0l-0.1,0c-4,0-5.5,3-5.5,5.1v7c0,0.8,0.7,1.5,1.5,1.5s1.5-0.7,1.5-1.5l0-6.9
		c0-0.3,0.2-2.1,2.4-2.1l1.2,0c0.9,0,1.6-0.6,1.6-1.5C109.4,17.8,108.8,17.1,107.9,17"/>
	<path class="st1" d="M85,17c-0.8,0-1.5,0.7-1.5,1.5v10.5c0,0.8,0.7,1.5,1.5,1.5c0.8,0,1.5-0.7,1.5-1.5V18.6
		C86.5,17.7,85.8,17,85,17"/>
	<path class="st1" d="M85,12.8c-0.8,0-1.5,0.7-1.5,1.5c0,0.8,0.7,1.5,1.5,1.5c0.8,0,1.5-0.7,1.5-1.5C86.5,13.5,85.9,12.8,85,12.8"/>
	<path class="st1" d="M63.9,17c-2.9,0-5.3,2.2-5.3,4.8v3.9c0,2.6,2.6,4.8,5.6,4.8c1.6,0,3.1-0.5,4.1-1.5c0,0,0,0,0,0c0,0,0,0,0,0
		c0.3-0.2,0.4-0.6,0.4-1c0-0.7-0.6-1.4-1.4-1.4c-0.4,0-0.7,0.2-1,0.4v0c0,0,0,0-0.1,0.1c-0.5,0.5-1.2,0.7-2.1,0.7
		c-1.4,0-2.7-1-2.7-2.2v-1.1h6.4c0.8,0,1.4-0.6,1.4-1.3v-1.5C69.2,19.2,66.9,17,63.9,17 M66.4,22h-5v-0.2c0-1.2,1.1-2.2,2.5-2.2
		s2.5,1,2.5,2.2V22z"/>
	<path class="st1" d="M145.3,17.1c-1.7,0-3.2,0.6-4.2,1.5c-0.3,0.3-0.5,0.7-0.5,1c0,0.7,0.7,1.3,1.5,1.3c0.6,0,1-0.3,1.4-0.6
		c0.4-0.3,0.9-0.7,1.9-0.7c1.5,0,2.2,0.6,2.2,1.7v0.5l-2.7,0.5c-1.8,0.3-4.9,1.3-4.9,4.1c0,2.8,2.8,4.1,5.3,4.1c3,0,5.3-1.8,5.3-4.3
		v-4.9C150.6,18.8,148.5,17.1,145.3,17.1 M147.6,26.2c0,1-1,1.7-2.3,1.7c-1.4,0-2.3-0.6-2.3-1.5c0-0.7,0.9-1.4,2.3-1.6l2.3-0.4V26.2
		z"/>
	<path class="st1" d="M56.6,22c0-2.7-2.2-4.9-4.9-4.9c-1.3,0-2.5,0.5-3.4,1.4c-0.9-0.8-2.1-1.4-3.4-1.4c-2.7,0-4.9,2.2-4.9,4.9v1.5
		h0V29c0,0.8,0.7,1.5,1.5,1.5c0.8,0,1.5-0.7,1.5-1.5v-5.8c0,0,0,0,0,0V22c0-1,0.8-1.8,1.8-1.8c1,0,1.8,0.8,1.8,1.8c0,0,0,0,0,0v1.5
		h0h0V29c0,0.8,0.7,1.5,1.5,1.5s1.5-0.7,1.5-1.5v-5.8c0,0,0,0,0,0V22c0,0,0,0,0,0c0-1,0.8-1.8,1.8-1.8c1,0,1.8,0.8,1.8,1.8v1.5h0V29
		c0,0.8,0.7,1.5,1.5,1.5c0.8,0,1.5-0.7,1.5-1.5v-5.8c0,0,0,0,0,0V22z"/>
	<path class="st1" d="M138.4,22c0-2.7-2.2-4.9-4.9-4.9c-1.3,0-2.5,0.5-3.4,1.4c-0.9-0.8-2.1-1.4-3.4-1.4c-2.7,0-4.9,2.2-4.9,4.9v1.5
		h0V29c0,0.8,0.7,1.5,1.5,1.5c0.8,0,1.5-0.7,1.5-1.5v-5.8c0,0,0,0,0,0V22c0-1,0.8-1.8,1.8-1.8c1,0,1.8,0.8,1.8,1.8c0,0,0,0,0,0v1.5
		h0h0V29c0,0.8,0.7,1.5,1.5,1.5s1.5-0.7,1.5-1.5v-5.8c0,0,0,0,0,0V22c0,0,0,0,0,0c0-1,0.8-1.8,1.8-1.8c1,0,1.8,0.8,1.8,1.8v1.5h0V29
		c0,0.8,0.7,1.5,1.5,1.5c0.8,0,1.5-0.7,1.5-1.5v-5.8c0,0,0,0,0,0V22z"/>
	<path class="st1" d="M63,16.3c0.3,0,0.7-0.1,0.9-0.3l2.1-1.6c0.7-0.5,0.8-1.5,0.3-2.2c-0.5-0.7-1.5-0.8-2.2-0.3l-2.1,1.6
		c-0.7,0.5-0.8,1.5-0.3,2.2C62.1,16.1,62.6,16.3,63,16.3"/>
	<path class="st1" d="M115.1,17c-2.9,0-5.3,2.2-5.3,4.8v3.9c0,2.6,2.6,4.8,5.6,4.8c1.6,0,3.1-0.5,4.1-1.5c0,0,0,0,0,0c0,0,0,0,0,0
		c0.3-0.2,0.4-0.6,0.4-1c0-0.7-0.6-1.4-1.4-1.4c-0.4,0-0.7,0.2-1,0.4v0c0,0,0,0-0.1,0.1c-0.5,0.5-1.2,0.7-2.1,0.7
		c-1.4,0-2.7-1-2.7-2.2v-1.1h6.4c0.8,0,1.4-0.6,1.4-1.3v-1.5C120.5,19.2,118.1,17,115.1,17 M117.6,22h-5v-0.2c0-1.2,1.1-2.2,2.5-2.2
		c1.4,0,2.5,1,2.5,2.2V22z"/>
	<path class="st1" d="M114.2,16.3c0.3,0,0.7-0.1,0.9-0.3l2.1-1.6c0.7-0.5,0.8-1.5,0.3-2.2c-0.5-0.7-1.5-0.8-2.2-0.3l-2.1,1.6
		c-0.7,0.5-0.8,1.5-0.3,2.2C113.3,16.1,113.8,16.3,114.2,16.3"/>
	<path class="st0" d="M167.3,22.4c0-3-2.4-5.4-5.4-5.4h-0.1c-3,0-5.4,2.4-5.4,5.4v2.8c0,3,2.4,5.4,5.4,5.4h0.1
		c1.3,0,2.6-0.5,3.5-1.3v1.4c0,1.9-1.6,3.5-3.5,3.5h-0.1c-1.1,0-2.1-0.5-2.7-1.3c0,0,0,0,0,0c-0.2-0.2-0.4-0.3-0.7-0.3
		c-0.5,0-0.9,0.4-0.9,0.9c0,0.2,0.1,0.4,0.2,0.6c0,0,0,0,0,0c0,0,0,0,0,0c0,0,0,0.1,0.1,0.1c1,1.1,2.4,1.9,4,1.9h0.1
		c3,0,5.4-2.4,5.4-5.4v-2.8c0-0.1,0-1.5,0-2.5c0-0.1,0-0.1,0-0.2V22.4z M161.9,28.7L161.9,28.7c-2,0-3.6-1.6-3.6-3.5v-2.8
		c0-1.9,1.6-3.5,3.5-3.5h0.1c1.9,0,3.5,1.6,3.5,3.5v2.8C165.4,27.1,163.8,28.7,161.9,28.7"/>
	<path class="st0" d="M200.6,17.9c0-0.5-0.4-0.9-0.9-0.9c-0.5,0-0.9,0.4-0.9,0.9l0,7.3c0,1.9-1.6,3.5-3.5,3.5h-0.1
		c-1.9,0-3.5-1.6-3.5-3.5l0-7.3c0-0.5-0.4-0.9-0.9-0.9c-0.5,0-0.9,0.4-0.9,0.9l0,7.3c0,3,2.4,5.4,5.4,5.4h0.1c3,0,5.4-2.4,5.4-5.4
		L200.6,17.9z"/>
	<g>
		<path class="st2" d="M4.4,21.3C5.8,19.7,6.9,20,8,21v0c0.1,0.1,0.1,0.1,0.2,0.2c0.7,0.4,1.6,0.2,2.1-0.5c0.4-0.7,0.2-1.6-0.5-2.1
			c-0.6-0.3-1.3-0.2-1.8,0.2v0c-1.1,1-2.2,1.3-3.7-0.4v0c-0.1-0.2-0.3-0.3-0.5-0.4c-1.1-0.6-2.4-0.3-3,0.8c-0.6,1.1-0.3,2.4,0.8,3
			C2.5,22.3,3.7,22.1,4.4,21.3L4.4,21.3z"/>
		<path class="st0" d="M28.8,18c-1.5,1.7-2.6,1.4-3.7,0.4v0c-0.1-0.1-0.1-0.1-0.2-0.2c-0.7-0.4-1.6-0.2-2.1,0.5
			c-0.4,0.7-0.2,1.6,0.5,2.1c0.6,0.3,1.3,0.2,1.8-0.2v0c1.1-1,2.2-1.3,3.7,0.4v0c0.1,0.2,0.3,0.3,0.5,0.4c1.1,0.6,2.4,0.3,3-0.8
			c0.6-1.1,0.3-2.4-0.8-3C30.7,17.1,29.5,17.3,28.8,18L28.8,18z"/>
		<path class="st1" d="M9.2,10.3c2.2,0.4,2.5,1.5,2.2,3l0,0c0,0.1,0,0.2,0,0.3c0,0.8,0.7,1.5,1.5,1.5c0.8,0,1.5-0.7,1.5-1.5
			c0-0.7-0.4-1.2-1-1.4l0,0c-1.4-0.5-2.2-1.3-1.6-3.4l0,0c0.1-0.2,0.1-0.4,0.1-0.7c0-1.2-1-2.2-2.2-2.2c-1.2,0-2.2,1-2.2,2.2
			C7.4,9.2,8.2,10.1,9.2,10.3L9.2,10.3z"/>
		<path class="st1" d="M24.2,29.9c-2.2-0.4-2.5-1.5-2.2-3l0,0c0-0.1,0-0.2,0-0.3c0-0.8-0.7-1.5-1.5-1.5c-0.8,0-1.5,0.7-1.5,1.5
			c0,0.7,0.4,1.2,1,1.4l0,0c1.4,0.5,2.2,1.3,1.6,3.4l0,0c-0.1,0.2-0.1,0.4-0.1,0.7c0,1.2,1,2.2,2.2,2.2c1.2,0,2.2-1,2.2-2.2
			C26,31,25.2,30.1,24.2,29.9L24.2,29.9z"/>
		<path class="st0" d="M26.9,4c0.6,2.1-0.2,2.9-1.6,3.3l0,0c-0.1,0-0.2,0.1-0.3,0.1c-0.7,0.4-1,1.3-0.6,2c0.4,0.7,1.3,1,2,0.6
			c0.6-0.3,0.9-1,0.8-1.6l0,0c-0.3-1.5,0.1-2.6,2.2-3l0,0c0.2,0,0.4-0.1,0.7-0.2c1.1-0.6,1.5-1.9,0.9-3c-0.6-1.1-1.9-1.5-3-0.9
			C27,1.9,26.6,3,26.9,4L26.9,4z"/>
		<path class="st2" d="M11.2,31.2c-0.6-2.1,0.2-2.9,1.6-3.3l0,0c0.1,0,0.2-0.1,0.3-0.1c0.7-0.4,1-1.3,0.6-2c-0.4-0.7-1.3-1-2-0.6
			c-0.6,0.3-0.9,1-0.8,1.6l0,0c0.3,1.5-0.1,2.6-2.2,3l0,0c-0.2,0-0.4,0.1-0.7,0.2c-1.1,0.6-1.5,1.9-0.9,3s1.9,1.5,3,0.9
			C11,33.3,11.5,32.2,11.2,31.2L11.2,31.2z"/>
		<path class="st1" d="M8.9,14.2c0,1.2-1,2.2-2.2,2.2s-2.2-1-2.2-2.2c0-1.2,1-2.2,2.2-2.2S8.9,13,8.9,14.2"/>
		<path class="st0" d="M17.7,10.6c-1.1,0.6-2.4,0.2-3-0.8c-0.6-1.1-0.2-2.4,0.8-3c1.1-0.6,2.4-0.2,3,0.8C19.1,8.7,18.7,10,17.7,10.6
			"/>
		<path class="st2" d="M7.8,23.8c1,0.6,1.4,2,0.8,3c-0.6,1-2,1.4-3,0.8c-1-0.6-1.4-2-0.8-3C5.4,23.6,6.8,23.2,7.8,23.8"/>
		<path class="st0" d="M33.2,14.3c-1-0.6-1.4-1.9-0.8-3c0.6-1,1.9-1.4,3-0.8c1,0.6,1.4,1.9,0.8,3C35.5,14.5,34.2,14.9,33.2,14.3"/>
		<path class="st3" d="M17.7,18.3c-1-0.6-2.4-0.2-3,0.8c-0.6,1-0.2,2.4,0.8,3c0.2,0.1,0.3,0.2,0.5,0.2v21c0,0.3,0.2,0.5,0.5,0.5
			c0.3,0,0.5-0.2,0.5-0.5V22.3c0.6-0.1,1.1-0.5,1.4-1.1C19.1,20.2,18.7,18.9,17.7,18.3"/>
		<path class="st1" d="M24.2,25.7c0-1.2,1-2.2,2.2-2.2c1.2,0,2.2,1,2.2,2.2c0,1.2-1,2.2-2.2,2.2C25.2,27.8,24.2,26.9,24.2,25.7"/>
	</g>
</g>
</svg>
